<svg width="20" height="20" viewBox="0 0 20 20" fill="none" xmlns="http://www.w3.org/2000/svg">
<path d="M5.16129 9.74194C5.16129 11.1672 4.0059 12.3226 2.58065 12.3226C1.15539 12.3226 0 11.1672 0 9.74194C0 8.31668 1.15539 7.16129 2.58065 7.16129C4.0059 7.16129 5.16129 8.31668 5.16129 9.74194Z" fill="#FE8A34"/>
<path d="M10.9677 4.58065C10.9677 6.0059 9.81235 7.16129 8.3871 7.16129C6.96185 7.16129 5.80645 6.0059 5.80645 4.58065C5.80645 3.15539 6.96185 2 8.3871 2C9.81235 2 10.9677 3.15539 10.9677 4.58065Z" fill="#FE8A34"/>
<path d="M14.8387 4.58065C14.8387 6.0059 13.6833 7.16129 12.2581 7.16129C10.8328 7.16129 9.67742 6.0059 9.67742 4.58065C9.67742 3.15539 10.8328 2 12.2581 2C13.6833 2 14.8387 3.15539 14.8387 4.58065Z" fill="#FE8A34"/>
<path d="M18.0645 6.19355C18.0645 7.6188 16.9091 8.77419 15.4839 8.77419C14.0586 8.77419 12.9032 7.6188 12.9032 6.19355C12.9032 4.7683 14.0586 3.6129 15.4839 3.6129C16.9091 3.6129 18.0645 4.7683 18.0645 6.19355Z" fill="#FE8A34"/>
<path d="M20 9.41935C20 10.8446 18.8446 12 17.4194 12C15.9941 12 14.8387 10.8446 14.8387 9.41935C14.8387 7.9941 15.9941 6.83871 17.4194 6.83871C18.8446 6.83871 20 7.9941 20 9.41935Z" fill="#FE8A34"/>
<path d="M7.74194 6.51613C7.74194 7.94138 6.58654 9.09677 5.16129 9.09677C3.73604 9.09677 2.58065 7.94138 2.58065 6.51613C2.58065 5.09088 3.73604 3.93548 5.16129 3.93548C6.58654 3.93548 7.74194 5.09088 7.74194 6.51613Z" fill="#FE8A34"/>
<path d="M4.19355 6.51613H16.7742V12.3226H4.19355V6.51613Z" fill="#FE8A34"/>
<path d="M8.3871 4.25806H12.5806V7.80645H8.3871V4.25806Z" fill="#FE8A34"/>
<path d="M8.06452 11.6774C8.06452 13.1027 6.90912 14.2581 5.48387 14.2581C4.05862 14.2581 2.90323 13.1027 2.90323 11.6774C2.90323 10.2522 4.05862 9.09677 5.48387 9.09677C6.90912 9.09677 8.06452 10.2522 8.06452 11.6774Z" fill="#8D34FD"/>
<path d="M12.2581 10.0645C12.2581 11.4898 11.1027 12.6452 9.67742 12.6452C8.25217 12.6452 7.09677 11.4898 7.09677 10.0645C7.09677 8.63926 8.25217 7.48387 9.67742 7.48387C11.1027 7.48387 12.2581 8.63926 12.2581 10.0645Z" fill="#8D34FD"/>
<path d="M15.8065 11.0323C15.8065 12.4575 14.7955 13.6129 13.5484 13.6129C12.3013 13.6129 11.2903 12.4575 11.2903 11.0323C11.2903 9.60701 12.3013 8.45161 13.5484 8.45161C14.7955 8.45161 15.8065 9.60701 15.8065 11.0323Z" fill="#8D34FD"/>
<path d="M15.1613 11.0323C15.1613 9.96332 16.0278 9.09677 17.0968 9.09677C18.1657 9.09677 19.0323 9.96332 19.0323 11.0323V13.9355C19.0323 15.0044 18.1657 15.871 17.0968 15.871C16.0278 15.871 15.1613 15.0044 15.1613 13.9355V11.0323Z" fill="#8D34FD"/>
<path d="M7.09677 14.2581H5.64516L8.3871 11.8387L11.9355 11.6774L15.3226 12.8065L16.9355 15.871C16.5484 16 15.5914 15.6022 15.1613 15.3871C15.9355 16.5484 15.4839 17.6989 15.1613 18.129C15 17.7527 13.871 17 10.6452 17C7.41935 17 6.93548 15.172 7.09677 14.2581Z" fill="#8D34FD"/>
</svg>
