<svg width="36" height="36" viewBox="0 0 36 36" fill="none" xmlns="http://www.w3.org/2000/svg">
<path d="M1.13933 16.7915C0.767196 15.9042 1.16617 14.8752 2.03047 14.4932L20.9221 6.14303C21.7864 5.76101 22.7888 6.17059 23.1609 7.05785L27.4713 17.3349C27.8434 18.2221 27.4444 19.2511 26.5801 19.6331L7.68845 27.9833C6.82415 28.3653 5.82183 27.9557 5.44969 27.0685L1.13933 16.7915Z" fill="#731DE2"/>
<path d="M7.52874 19.4151C7.15661 18.5279 7.55558 17.4989 8.41988 17.1169L27.3116 8.76671C28.1758 8.38469 29.1782 8.79426 29.5503 9.68153L33.8607 19.9585C34.2328 20.8458 33.8338 21.8748 32.9695 22.2568L14.0779 30.607C13.2136 30.989 12.2112 30.5794 11.8391 29.6921L7.52874 19.4151Z" fill="#FE892A"/>
<path d="M10.2626 25.6796L32.2842 15.946L33.2441 18.2347L11.2225 27.9683L10.2626 25.6796Z" fill="#731DE2"/>
<path d="M28.5789 13.3224C28.5789 14.2884 27.8161 15.0715 26.8751 15.0715C25.9341 15.0715 25.1712 14.2884 25.1712 13.3224C25.1712 12.3563 25.9341 11.5732 26.8751 11.5732C27.8161 11.5732 28.5789 12.3563 28.5789 13.3224Z" fill="#731DE2"/>
</svg>
