<svg width="32" height="32" viewBox="0 0 32 32" fill="none" xmlns="http://www.w3.org/2000/svg">
<path fill-rule="evenodd" clip-rule="evenodd" d="M24.6889 4.69055C25.4309 5.05772 25.4309 6.11589 24.6889 6.48307L17.4435 10.0686C16.7789 10.3975 16 9.91392 16 9.17234L16 7.08681C10.4772 7.08681 6 11.564 6 17.0868C6 22.6097 10.4772 27.0868 16 27.0868C21.5228 27.0868 26 22.6097 26 17.0868C26 15.4193 25.5931 13.8513 24.8744 12.4724C24.4915 11.7378 24.7766 10.8318 25.5113 10.4489C26.2459 10.0661 27.1518 10.3512 27.5347 11.0858C28.4712 12.8827 29 14.9252 29 17.0868C29 24.2665 23.1797 30.0868 16 30.0868C8.8203 30.0868 3 24.2665 3 17.0868C3 9.9071 8.8203 4.08681 16 4.08681L16 2.00128C16 1.25969 16.7789 0.7761 17.4435 1.10502L24.6889 4.69055Z" fill="black"/>
<path d="M13.5629 13.2727V22H11.7177V15.0241H11.6665L9.66797 16.277V14.6406L11.8285 13.2727H13.5629ZM18.8089 22.1918C18.076 22.1889 17.4453 22.0085 16.9169 21.6506C16.3913 21.2926 15.9865 20.7741 15.7024 20.0952C15.4212 19.4162 15.282 18.5994 15.2848 17.6449C15.2848 16.6932 15.4254 15.8821 15.7067 15.2116C15.9908 14.5412 16.3956 14.0312 16.9212 13.6818C17.4496 13.3295 18.0788 13.1534 18.8089 13.1534C19.5391 13.1534 20.1669 13.3295 20.6925 13.6818C21.2209 14.0341 21.6271 14.5455 21.9112 15.2159C22.1953 15.8835 22.3359 16.6932 22.3331 17.6449C22.3331 18.6023 22.1911 19.4205 21.907 20.0994C21.6257 20.7784 21.2223 21.2969 20.6967 21.6548C20.1712 22.0128 19.5419 22.1918 18.8089 22.1918ZM18.8089 20.6619C19.3089 20.6619 19.7081 20.4105 20.0064 19.9077C20.3047 19.4048 20.4524 18.6506 20.4496 17.6449C20.4496 16.983 20.3814 16.4318 20.245 15.9915C20.1115 15.5511 19.9212 15.2202 19.674 14.9986C19.4297 14.777 19.1413 14.6662 18.8089 14.6662C18.3118 14.6662 17.9141 14.9148 17.6158 15.4119C17.3175 15.9091 17.1669 16.6534 17.1641 17.6449C17.1641 18.3153 17.2308 18.875 17.3643 19.3239C17.5007 19.7699 17.6925 20.1051 17.9396 20.3295C18.1868 20.5511 18.4766 20.6619 18.8089 20.6619Z" fill="black"/>
</svg>
