<svg width="18" height="18" viewBox="0 0 18 18" fill="none" xmlns="http://www.w3.org/2000/svg">
<path d="M4.74224 4.21777C5.69416 3.1301 6.20976 3.76457 6.34858 4.21777C6.60641 5.08477 7.22914 6.45226 7.6575 4.98625C8.19294 3.15374 7.59801 0.611873 9.20434 0.0207411C10.4537 -0.334012 13.0603 3.93014 15.0942 7.58723C15.7476 8.76202 16.5221 11.4297 14.7967 14.5627C13.7939 16.0997 10.5856 19.2641 6.52709 17.4593C-1.98052 13.6758 3.96883 5.10148 4.74224 4.21777Z" fill="#FE8833"/>
<path d="M6.44822 9.61045C6.90209 8.97409 7.21517 9.28695 7.31499 9.52293C7.50176 9.97479 7.91294 10.6757 8.0635 9.86458C8.2517 8.85065 7.79097 7.5171 8.62524 7.11191C9.27989 6.8532 10.9208 9.00267 12.2192 10.8571C12.6363 11.4528 13.2009 12.8442 12.4421 14.6219C11.9855 15.5024 10.4282 17.3778 8.1391 16.629C3.34055 15.0594 6.07947 10.1275 6.44822 9.61045Z" fill="#FFA636"/>
</svg>
