<svg width="36" height="36" viewBox="0 0 36 36" fill="none" xmlns="http://www.w3.org/2000/svg">
<path d="M6 34.7368C6 35.4345 6.56554 36 7.26316 36H28.7368C29.4345 36 30 35.4345 30 34.7368V31.5789C30 30.8813 29.4345 30.3158 28.7368 30.3158H7.26316C6.56553 30.3158 6 30.8813 6 31.5789V34.7368Z" fill="#FF8A27"/>
<path d="M6 4.42105C6 5.11868 6.56554 5.68421 7.26316 5.68421H28.7368C29.4345 5.68421 30 5.11868 30 4.42105V1.26316C30 0.565537 29.4345 1.43051e-06 28.7368 1.43051e-06H7.26316C6.56553 1.43051e-06 6 0.565537 6 1.26316V4.42105Z" fill="#FF8A27"/>
<path d="M27.7895 25.5789H27.7694C27.4439 20.4667 23.1944 16.4211 18 16.4211C12.8056 16.4211 8.5561 20.4667 8.23057 25.5789H8.21053V34.4211H12.6668C14.2011 35.4197 16.0328 36 18 36C19.9672 36 21.7989 35.4197 23.3332 34.4211H27.7895V25.5789Z" fill="#FF8A27"/>
<path d="M27.7895 10.1053V2.84211H8.21053V10.1053H8.23057C8.5561 15.2175 12.8056 19.2632 18 19.2632C23.1944 19.2632 27.4439 15.2175 27.7694 10.1053H27.7895Z" fill="#FF8A27"/>
<path d="M8.21053 30.3158V25.5789H8.23057C8.30037 24.4828 8.55055 23.4358 8.95176 22.4671C10.1028 22.3231 12.4692 22.14 15.1579 22.5789C16.2803 22.7622 17.4589 23.0729 18.6286 23.3814C20.4109 23.8513 22.1726 24.3158 23.6842 24.3158C24.9717 24.3158 26.5334 23.5791 27.307 23.1666C27.5576 23.9334 27.7161 24.7419 27.7694 25.5789H27.7895V30.3158H8.21053Z" fill="#721EE0"/>
<path d="M8.23689 10.1982C8.46639 13.3353 10.1742 16.0619 12.6667 17.6842H23.3332C25.8503 16.0459 27.5672 13.2814 27.7694 10.1053H27.7895L27.7894 7.26358C26.2915 7.26844 23.7686 7.31853 21.9473 7.57227C20.0883 7.83126 18.2352 8.46512 16.4686 9.0694C14.3957 9.77848 12.4417 10.4468 10.7368 10.4211C9.66636 10.4049 8.72082 10.2764 8.23689 10.1982Z" fill="#721EE0"/>
<path d="M17.0526 15.1579C17.0526 14.4603 16.4871 13.8947 15.7895 13.8947C15.0919 13.8947 14.5263 14.4603 14.5263 15.1579C14.5263 15.8555 15.0919 16.4211 15.7895 16.4211C16.4871 16.4211 17.0526 15.8555 17.0526 15.1579Z" fill="#FF8A27"/>
<path d="M21.4737 11.3684C21.4737 10.6708 20.9081 10.1053 20.2105 10.1053C19.5129 10.1053 18.9474 10.6708 18.9474 11.3684C18.9474 12.066 19.5129 12.6316 20.2105 12.6316C20.9081 12.6316 21.4737 12.066 21.4737 11.3684Z" fill="#FF8A27"/>
<path d="M18.9474 8.84211C18.9474 8.14448 18.3818 7.57895 17.6842 7.57895C16.9866 7.57895 16.4211 8.14448 16.4211 8.84211C16.4211 9.53973 16.9866 10.1053 17.6842 10.1053C18.3818 10.1053 18.9474 9.53973 18.9474 8.84211Z" fill="#FF8A27"/>
</svg>
