<svg width="36" height="36" viewBox="0 0 36 36" fill="none" xmlns="http://www.w3.org/2000/svg">
<path d="M18.1244 19.1024L12.2333 17.2442L7.04592 33.6896L11.9831 30.8031L14.3705 36L18.1244 24.099L21.8783 36L24.2657 30.8031L29.2029 33.6896L24.0155 17.2442L18.1244 19.1024Z" fill="#FE8A2B"/>
<path fill-rule="evenodd" clip-rule="evenodd" d="M14.4525 2.93104C14.8453 1.25114 16.3527 0 18.1523 0C19.9737 0 21.4958 1.28158 21.8659 2.99218C22.4738 2.57939 23.2077 2.33819 23.9978 2.33819C26.0963 2.33819 27.7974 4.03932 27.7974 6.13776C27.7974 6.77156 27.6422 7.36912 27.3678 7.8945C29.3944 7.97577 31.0124 9.64441 31.0124 11.691C31.0124 13.241 30.0843 14.5742 28.7534 15.1652C29.4275 15.8509 29.8433 16.7913 29.8433 17.8287C29.8433 19.9272 28.1422 21.6283 26.0437 21.6283C25.7346 21.6283 25.434 21.5914 25.1462 21.5217C25.1599 21.6528 25.1669 21.7858 25.1669 21.9206C25.1669 24.019 23.4658 25.7201 21.3674 25.7201C20.0137 25.7201 18.8253 25.0122 18.1523 23.9464C17.4793 25.0122 16.291 25.7201 14.9373 25.7201C12.8389 25.7201 11.1378 24.019 11.1378 21.9206C11.1378 21.756 11.1482 21.594 11.1685 21.435C10.7913 21.5604 10.3879 21.6283 9.96866 21.6283C7.87022 21.6283 6.1691 19.9272 6.1691 17.8287C6.1691 16.6842 6.67515 15.6579 7.47571 14.9613C6.02999 14.4238 5 13.0315 5 11.3987C5 9.35214 6.61803 7.6835 8.64465 7.60223C8.3702 7.07684 8.21502 6.47929 8.21502 5.84548C8.21502 3.74704 9.91614 2.04592 12.0146 2.04592C12.9425 2.04592 13.7927 2.37854 14.4525 2.93104ZM18.1523 7.59913C18.9425 7.59913 19.6763 7.35793 20.2842 6.94514C20.6438 8.60701 22.0906 9.86395 23.8429 9.93422C23.5685 10.4596 23.4133 11.0572 23.4133 11.691C23.4133 12.7284 23.8291 13.6688 24.5031 14.3545C23.1723 14.9455 22.2442 16.2787 22.2442 17.8287C22.2442 17.9634 22.2512 18.0965 22.2649 18.2276C21.9771 18.1579 21.6765 18.121 21.3674 18.121C20.0137 18.121 18.8253 18.8289 18.1523 19.8947C17.4793 18.8289 16.291 18.121 14.9373 18.121C14.518 18.121 14.1146 18.1889 13.7375 18.3143C13.7578 18.1553 13.7682 17.9932 13.7682 17.8287C13.7682 16.1959 12.7382 14.8036 11.2925 14.2661C12.0931 13.5696 12.5991 12.5432 12.5991 11.3987C12.5991 10.7649 12.4439 10.1673 12.1695 9.64195C13.9002 9.57254 15.3329 8.34547 15.7144 6.714C16.3742 7.26651 17.2244 7.59913 18.1523 7.59913Z" fill="#741FDC"/>
<path d="M26.0437 12.7139C26.0437 17.1529 22.4452 20.7515 18.0062 20.7515C13.5672 20.7515 9.96866 17.1529 9.96866 12.7139C9.96866 8.27492 13.5672 4.67639 18.0062 4.67639C22.4452 4.67639 26.0437 8.27492 26.0437 12.7139Z" fill="#FF8929"/>
</svg>
