<svg width="32" height="32" viewBox="0 0 32 32" fill="none" xmlns="http://www.w3.org/2000/svg">
<path d="M16.0277 22.1193C15.4254 22.1193 14.8885 22.0085 14.4169 21.7869C13.9482 21.5653 13.576 21.2599 13.3004 20.8707C13.0249 20.4815 12.8814 20.0355 12.87 19.5327H14.6598C14.6797 19.8707 14.8217 20.1449 15.0859 20.3551C15.3501 20.5653 15.6641 20.6705 16.0277 20.6705C16.3175 20.6705 16.5732 20.6065 16.7947 20.4787C17.0192 20.348 17.1939 20.1676 17.3189 19.9375C17.4467 19.7045 17.5107 19.4375 17.5107 19.1364C17.5107 18.8295 17.4453 18.5597 17.3146 18.3267C17.1868 18.0937 17.0092 17.9119 16.782 17.7812C16.5547 17.6506 16.2947 17.5838 16.0021 17.581C15.7464 17.581 15.4979 17.6335 15.2564 17.7386C15.0178 17.8437 14.8317 17.9872 14.6982 18.169L13.0575 17.875L13.4709 13.2727H18.8061V14.7812H14.9922L14.7663 16.9673H14.8175C14.9709 16.7514 15.2024 16.5724 15.5121 16.4304C15.8217 16.2884 16.1683 16.2173 16.5518 16.2173C17.0774 16.2173 17.5462 16.3409 17.9581 16.5881C18.37 16.8352 18.6953 17.1747 18.9339 17.6065C19.1726 18.0355 19.2905 18.5298 19.2876 19.0895C19.2905 19.6776 19.1541 20.2003 18.8786 20.6577C18.6058 21.1122 18.2237 21.4702 17.7322 21.7315C17.2436 21.9901 16.6754 22.1193 16.0277 22.1193Z" fill="black"/>
<path fill-rule="evenodd" clip-rule="evenodd" d="M7.31109 4.69055C6.56914 5.05772 6.56914 6.11589 7.31109 6.48307L14.5565 10.0686C15.2211 10.3975 16 9.91392 16 9.17234L16 7.08681C21.5228 7.08681 26 11.564 26 17.0868C26 22.6097 21.5228 27.0868 16 27.0868C10.4772 27.0868 6 22.6097 6 17.0868C6 15.4193 6.40694 13.8513 7.12562 12.4724C7.50851 11.7378 7.22336 10.8318 6.48873 10.4489C5.75409 10.0661 4.84816 10.3512 4.46527 11.0858C3.52876 12.8827 3 14.9252 3 17.0868C3 24.2665 8.8203 30.0868 16 30.0868C23.1797 30.0868 29 24.2665 29 17.0868C29 9.9071 23.1797 4.08681 16 4.08681L16 2.00128C16 1.25969 15.2211 0.7761 14.5565 1.10502L7.31109 4.69055Z" fill="black"/>
</svg>
