<svg width="20" height="20" viewBox="0 0 20 20" fill="none" xmlns="http://www.w3.org/2000/svg">
<g clip-path="url(#clip0_54_298)">
<path fill-rule="evenodd" clip-rule="evenodd" d="M8.34207 0.580633C9.12656 -0.196963 10.3985 -0.196961 11.183 0.580633L15.2353 4.59739C15.6275 4.98618 15.6275 5.61655 15.2353 6.00535C14.8431 6.39414 14.2071 6.39414 13.8149 6.00535L10.7625 2.97981V13.4664C10.7625 14.0187 10.3148 14.4664 9.76251 14.4664C9.21023 14.4664 8.76251 14.0187 8.76251 13.4664V2.97981L5.71016 6.00535C5.31791 6.39414 4.68196 6.39414 4.28972 6.00535C3.89748 5.61655 3.89748 4.98618 4.28972 4.59739L8.34207 0.580633ZM6.96163 8.92093C6.96163 8.36864 6.51391 7.92093 5.96163 7.92093C4.32597 7.92093 3 9.24689 3 10.8825V17.0088C3 18.6656 4.34315 20.0088 6 20.0088H9.55794H13.1159C14.7727 20.0088 16.1159 18.6656 16.1159 17.0088V10.8825C16.1159 9.24689 14.7899 7.92093 13.1542 7.92093C12.602 7.92093 12.1542 8.36864 12.1542 8.92093C12.1542 9.47321 12.602 9.92093 13.1542 9.92093C13.6853 9.92093 14.1159 10.3515 14.1159 10.8825V17.0088C14.1159 17.5611 13.6682 18.0088 13.1159 18.0088H9.55794H6C5.44772 18.0088 5 17.5611 5 17.0088V10.8825C5 10.3515 5.43053 9.92093 5.96163 9.92093C6.51391 9.92093 6.96163 9.47321 6.96163 8.92093Z" fill="black"/>
</g>
<defs>
<clipPath id="clip0_54_298">
<rect width="20" height="20" fill="white"/>
</clipPath>
</defs>
</svg>
