<svg width="20" height="20" viewBox="0 0 20 20" fill="none" xmlns="http://www.w3.org/2000/svg">
<path d="M7.66665 0.666646C7.66665 0.482551 7.81588 0.333313 7.99998 0.333313H11.3333C11.5174 0.333313 11.6666 0.482551 11.6666 0.666646V1.66665C11.6666 1.85074 11.5174 1.99998 11.3333 1.99998H7.99998C7.81588 1.99998 7.66665 1.85074 7.66665 1.66665V0.666646Z" fill="#711ADD"/>
<path d="M8.33331 1.99998H11V2.99998H8.33331V1.99998Z" fill="#711ADD"/>
<path d="M13.7395 1.59764C13.8516 1.45166 14.0609 1.42424 14.2069 1.53639L16.5858 3.36412C16.7318 3.47628 16.7592 3.68555 16.6471 3.83153L16.3084 4.27235C16.1963 4.41834 15.987 4.44576 15.841 4.3336L13.4621 2.50587C13.3161 2.39371 13.2886 2.18445 13.4008 2.03846L13.7395 1.59764Z" fill="#711ADD"/>
<path d="M13.8432 2.33331L15.6506 3.80904L14.8074 4.84183L13 3.36611L13.8432 2.33331Z" fill="#711ADD"/>
<path d="M18.3333 11.1666C18.3333 15.8611 14.5277 19.6666 9.83331 19.6666C5.13889 19.6666 1.33331 15.8611 1.33331 11.1666C1.33331 6.47223 5.13889 2.66665 9.83331 2.66665C14.5277 2.66665 18.3333 6.47223 18.3333 11.1666Z" fill="#711ADD"/>
<path d="M16.3333 11.1666C16.3333 14.7565 13.4232 17.6666 9.83331 17.6666C6.24346 17.6666 3.33331 14.7565 3.33331 11.1666C3.33331 7.5768 6.24346 4.66665 9.83331 4.66665C13.4232 4.66665 16.3333 7.5768 16.3333 11.1666Z" fill="#FE8833"/>
<path d="M6.42427 8.45765C6.29789 8.32378 6.30395 8.11282 6.43782 7.98644L6.68019 7.7576C6.81405 7.63122 7.02502 7.63729 7.1514 7.77115L9.43972 10.1949C9.46477 10.2215 9.48462 10.251 9.4993 10.2823C9.80028 10.1796 10.134 10.2038 10.4182 10.3525L11.7563 9.39005C11.9058 9.28255 12.1141 9.31656 12.2216 9.46601L12.4162 9.73662C12.5237 9.88607 12.4897 10.0944 12.3403 10.2019L11.02 11.1515C11.0982 11.534 10.9827 11.947 10.678 12.2348C10.2095 12.6771 9.47107 12.6559 9.02874 12.1874C8.70476 11.8442 8.62946 11.3563 8.79646 10.9459C8.76602 10.9295 8.73764 10.908 8.71259 10.8814L6.42427 8.45765Z" fill="#7220DC"/>
</svg>
